<?xml version="1.0" encoding="iso-8859-1"?>
<!-- Uploaded to: SVG Repo, www.svgrepo.com, Generator: SVG Repo Mixer Tools -->
<svg fill="#000000" height="800px" width="800px" version="1.1" id="Layer_1" xmlns="http://www.w3.org/2000/svg" xmlns:xlink="http://www.w3.org/1999/xlink" 
	 viewBox="0 0 512 512" xml:space="preserve">
<g>
	<g>
		<g>
			<path d="M187.733,221.867v2.295c-5.094,2.953-8.533,8.465-8.533,14.771V256c0,6.434,3.584,12.058,8.866,14.959
				c1.621,16.401,8.755,30.839,9.096,31.522c7.74,15.471,19.43,38.852,58.837,38.852s51.098-23.381,58.837-38.852
				c0.341-0.683,7.475-15.121,9.105-31.522c5.274-2.901,8.858-8.525,8.858-14.959v-17.067c0-6.306-3.43-11.819-8.533-14.771v-2.295
				c0-28.237-22.963-51.2-51.2-51.2h-34.133C210.697,170.667,187.733,193.63,187.733,221.867z M204.8,221.867
				c0-18.825,15.309-34.133,34.133-34.133h34.133c18.825,0,34.133,15.309,34.133,34.133v8.533c0,4.71,3.814,8.533,8.533,8.533V256
				c-4.719,0-8.533,3.823-8.533,8.533c0,14.763-7.561,30.174-7.637,30.319c-8.883,17.766-16.717,29.414-43.563,29.414
				c-26.846,0-34.679-11.648-43.554-29.406c-0.085-0.154-7.646-15.565-7.646-30.328c0-4.71-3.823-8.533-8.533-8.533v-17.067
				c4.71,0,8.533-3.823,8.533-8.533V221.867z"/>
			<path d="M230.4,256h8.533c4.719,0,8.533-3.823,8.533-8.533s-3.814-8.533-8.533-8.533H230.4c-4.719,0-8.533,3.823-8.533,8.533
				S225.681,256,230.4,256z"/>
			<path d="M503.467,247.467H384c-4.719,0-8.533,3.823-8.533,8.533s3.814,8.533,8.533,8.533h119.467
				c4.719,0,8.533-3.823,8.533-8.533S508.186,247.467,503.467,247.467z"/>
			<path d="M273.067,256h8.533c4.719,0,8.533-3.823,8.533-8.533s-3.814-8.533-8.533-8.533h-8.533c-4.719,0-8.533,3.823-8.533,8.533
				S268.348,256,273.067,256z"/>
			<path d="M288.888,36.574c95.625,14.208,172.331,90.914,186.539,186.547c0.631,4.241,4.275,7.279,8.431,7.279
				c0.418,0,0.836-0.026,1.263-0.085c4.659-0.691,7.876-5.035,7.185-9.694c-15.3-103.006-97.92-185.626-200.926-200.926
				c-4.625-0.657-8.986,2.526-9.685,7.185C281.003,31.539,284.22,35.883,288.888,36.574z"/>
			<path d="M291.797,71.68c-4.599-0.879-9.097,2.133-9.993,6.758s2.133,9.105,6.758,10.001
				c67.763,13.082,122.027,67.405,135.031,135.177c0.777,4.079,4.361,6.921,8.371,6.921c0.538,0,1.075-0.051,1.621-0.154
				c4.625-0.887,7.654-5.359,6.767-9.984C426.052,145.843,366.353,86.076,291.797,71.68z"/>
			<path d="M256,136.533c4.719,0,8.533-3.823,8.533-8.533V8.533C264.533,3.823,260.719,0,256,0s-8.533,3.823-8.533,8.533V128
				C247.467,132.71,251.281,136.533,256,136.533z"/>
			<path d="M136.533,256c0-4.71-3.823-8.533-8.533-8.533H8.533C3.823,247.467,0,251.29,0,256s3.823,8.533,8.533,8.533H128
				C132.71,264.533,136.533,260.71,136.533,256z"/>
			<path d="M223.113,475.426c-95.625-14.199-172.331-90.914-186.539-186.547c-0.691-4.668-5.06-7.885-9.694-7.185
				c-4.659,0.691-7.876,5.035-7.185,9.694c15.3,103.006,97.92,185.626,200.926,200.917c0.418,0.068,0.836,0.094,1.254,0.094
				c4.156,0,7.799-3.038,8.431-7.279C230.997,480.461,227.78,476.117,223.113,475.426z"/>
			<path d="M485.12,281.694c-4.659-0.691-8.994,2.526-9.694,7.185c-14.199,95.633-90.914,172.339-186.539,186.547
				c-4.668,0.691-7.885,5.035-7.194,9.694c0.631,4.241,4.275,7.279,8.431,7.279c0.418,0,0.836-0.026,1.254-0.094
				c103.006-15.3,185.626-97.92,200.926-200.917C492.996,286.729,489.779,282.385,485.12,281.694z"/>
			<path d="M256,375.467c-4.719,0-8.533,3.823-8.533,8.533v119.467c0,4.71,3.814,8.533,8.533,8.533s8.533-3.823,8.533-8.533V384
				C264.533,379.29,260.719,375.467,256,375.467z"/>
			<path d="M281.805,433.57c0.785,4.079,4.361,6.912,8.371,6.912c0.529,0,1.084-0.051,1.621-0.154
				c74.479-14.387,134.161-74.095,148.531-148.565c0.896-4.634-2.133-9.105-6.758-9.993c-4.685-0.879-9.105,2.133-9.992,6.758
				c-13.073,67.695-67.319,121.958-135.014,135.04C283.93,424.465,280.909,428.945,281.805,433.57z"/>
			<path d="M88.439,288.58c-0.905-4.634-5.41-7.654-10.001-6.758c-4.625,0.896-7.654,5.367-6.758,10.001
				c14.396,74.462,74.095,134.144,148.557,148.506c0.546,0.102,1.092,0.154,1.621,0.154c4.011,0,7.586-2.833,8.363-6.912
				c0.905-4.634-2.133-9.105-6.75-10.001C155.785,410.513,101.521,356.267,88.439,288.58z"/>
			<path d="M220.39,71.646c-74.556,14.31-134.315,74.01-148.71,148.557c-0.896,4.625,2.133,9.096,6.758,9.992
				c0.546,0.102,1.092,0.154,1.63,0.154c4.011,0,7.578-2.833,8.371-6.912c13.082-67.763,67.405-122.027,135.168-135.031
				c4.625-0.887,7.663-5.359,6.775-9.993C229.495,73.788,224.973,70.741,220.39,71.646z"/>
			<path d="M26.88,230.315c0.427,0.06,0.845,0.085,1.263,0.085c4.164,0,7.799-3.038,8.431-7.279
				c14.208-95.633,90.914-172.339,186.539-186.547c4.668-0.691,7.885-5.035,7.194-9.694c-0.691-4.659-4.992-7.842-9.685-7.185
				c-103.006,15.3-185.626,97.92-200.926,200.926C19.004,225.28,22.221,229.623,26.88,230.315z"/>
		</g>
	</g>
</g>
</svg>