<?xml version="1.0" standalone="no"?>
<!DOCTYPE svg PUBLIC "-//W3C//DTD SVG 20010904//EN"
 "http://www.w3.org/TR/2001/REC-SVG-20010904/DTD/svg10.dtd">
<svg version="1.0" xmlns="http://www.w3.org/2000/svg"
 width="2000.000000pt" height="2000.000000pt" viewBox="0 0 2000.000000 2000.000000"
 preserveAspectRatio="xMidYMid meet">

<g transform="translate(0.000000,2000.000000) scale(0.100000,-0.100000)"
fill="#000000" stroke="none">
<path d="M11589 17048 c-89 -112 -165 -204 -169 -206 -4 -1 -45 40 -91 93 -46
52 -86 95 -89 95 -4 0 -17 -11 -30 -25 l-23 -24 56 -63 c30 -35 84 -94 119
-132 l63 -68 185 233 c102 128 189 239 194 247 6 11 2 21 -14 34 -12 10 -26
18 -30 18 -5 0 -81 -91 -171 -202z"/>
<path d="M5989 16619 c-45 -7 -100 -30 -129 -54 -8 -7 -39 -20 -68 -30 -59
-19 -106 -54 -126 -94 -34 -66 -66 -301 -66 -483 l0 -99 48 -22 c38 -17 65
-21 140 -20 51 0 95 2 97 5 2 2 -1 48 -7 101 l-12 98 -51 -6 c-90 -12 -145 36
-145 125 0 54 23 95 59 108 41 14 70 5 112 -35 20 -19 39 -31 42 -26 2 4 8 34
12 66 5 47 14 66 39 95 43 48 63 88 77 153 11 50 12 51 43 45 93 -18 265 -136
302 -208 10 -20 16 -62 17 -127 2 -83 -1 -102 -22 -144 -28 -58 -93 -123 -138
-139 -31 -11 -33 -15 -33 -60 0 -26 3 -48 8 -48 22 1 154 32 195 47 l49 18 -7
90 c-24 342 -39 454 -69 498 -65 96 -241 166 -367 146z"/>
<path d="M5655 15746 c-77 -23 -157 -52 -178 -65 -46 -28 -86 -85 -93 -132 -5
-29 0 -41 30 -76 80 -92 248 -193 381 -228 149 -40 344 -28 491 31 75 29 214
116 253 158 l24 26 -36 73 c-37 74 -102 159 -139 178 -17 9 -208 69 -208 66 0
-1 18 -58 39 -127 22 -68 39 -125 38 -127 -2 -1 -23 3 -47 8 -53 13 -176 5
-273 -17 -38 -9 -71 -14 -73 -11 -4 4 -14 55 -49 255 -3 17 -9 32 -13 31 -4
-1 -70 -20 -147 -43z"/>
<path d="M11639 15633 c-13 -16 -12 -17 4 -4 16 13 21 21 13 21 -2 0 -10 -8
-17 -17z"/>
<path d="M10584 13656 c-156 -30 -301 -99 -395 -190 -15 -13 -44 -28 -65 -32
-99 -18 -370 -134 -362 -155 2 -4 132 -139 291 -300 211 -214 287 -286 287
-271 0 15 16 34 49 57 160 115 254 316 306 649 l6 38 47 -7 c206 -31 473 -155
686 -319 l79 -61 -63 -7 c-138 -15 -162 -99 -38 -128 48 -12 169 -9 213 5 16
5 31 -6 72 -57 85 -105 91 -120 109 -269 18 -145 24 -399 11 -491 -6 -51 -5
-58 10 -58 13 0 14 3 5 12 -7 7 -12 17 -12 23 0 5 5 3 10 -5 7 -12 10 -12 10
-1 0 7 11 22 25 33 14 11 25 25 25 33 0 7 7 18 15 25 19 16 19 70 0 275 -41
431 -76 622 -132 717 -118 201 -429 395 -753 469 -112 26 -339 34 -436 15z
m1253 -1528 c-3 -7 -5 -2 -5 12 0 14 2 19 5 13 2 -7 2 -19 0 -25z"/>
<path d="M10700 12986 c-96 -27 -136 -80 -89 -119 21 -17 35 -19 111 -15 139
8 218 59 165 108 -41 39 -108 48 -187 26z"/>
<path d="M11475 12548 c-27 -24 -49 -93 -37 -114 4 -6 28 -35 55 -64 46 -51
48 -52 72 -36 56 37 58 165 4 211 -38 31 -60 32 -94 3z"/>
<path d="M10848 12510 c-26 -16 -51 -94 -45 -140 10 -75 52 -111 112 -96 96
24 82 237 -15 243 -19 2 -43 -2 -52 -7z"/>
<path d="M4909 12460 c-220 -36 -301 -290 -148 -464 38 -44 136 -94 201 -102
45 -6 49 -9 43 -28 -13 -39 -17 -201 -6 -246 7 -31 7 -46 0 -49 -29 -10 -80
-67 -95 -106 -23 -61 -15 -154 19 -220 31 -62 109 -117 177 -125 l45 -5 3
-152 c3 -169 2 -168 69 -142 130 49 152 241 36 320 -46 32 -60 37 -105 38 -23
1 -28 6 -28 26 0 23 4 25 40 25 52 0 106 -23 149 -63 49 -47 71 -100 71 -177
0 -110 -67 -199 -173 -228 -20 -6 -38 -7 -38 -4 -1 4 -5 -11 -8 -33 -7 -46 8
-40 -271 -116 -85 -23 -159 -46 -164 -50 -12 -10 74 -137 143 -211 203 -220
513 -332 787 -284 254 44 452 194 537 408 15 36 27 71 27 77 0 6 -28 19 -62
29 -35 11 -114 34 -175 53 l-113 34 0 70 c0 39 -2 98 -3 131 l-3 62 40 12
c111 33 230 127 285 224 57 99 64 146 56 365 -4 108 -13 227 -21 264 -48 241
-202 369 -474 393 -83 7 -307 -10 -393 -30 l-55 -13 -12 45 c-46 185 -207 300
-381 272z m1009 -1237 c19 -26 15 -39 -24 -77 -62 -60 -131 -60 -184 1 -22 24
-30 43 -28 61 3 23 9 28 43 34 66 10 178 -1 193 -19z"/>
<path d="M15250 12425 c-228 -40 -542 -121 -598 -155 -32 -20 -57 -55 -208
-295 -161 -257 -168 -280 -113 -395 28 -59 32 -63 43 -45 24 42 74 84 114 94
48 13 82 7 138 -25 40 -23 42 -26 59 -109 20 -93 16 -90 99 -79 l46 7 0 146 0
146 45 24 45 24 0 136 0 136 119 27 119 28 54 -25 c89 -41 186 -41 279 -1 10
4 32 -6 62 -29 l46 -36 8 28 c4 16 8 64 8 108 0 90 -8 106 -124 248 -64 78
-49 75 -241 42z"/>
<path d="M11922 12155 c0 -16 2 -22 5 -12 2 9 2 23 0 30 -3 6 -5 -1 -5 -18z"/>
<path d="M11931 12084 c0 -11 3 -14 6 -6 3 7 2 16 -1 19 -3 4 -6 -2 -5 -13z"/>
<path d="M11800 12042 c0 -6 9 -12 20 -15 11 -3 20 -3 20 -1 0 2 -9 8 -20 14
-11 6 -20 7 -20 2z"/>
<path d="M11762 11962 c-78 -211 -286 -413 -517 -501 l-50 -19 4 -138 c2 -77
4 -140 6 -142 5 -6 205 20 288 37 109 23 289 77 405 121 l82 32 0 46 c0 26 -5
137 -12 248 l-11 201 -40 44 c-84 93 -118 129 -126 129 -5 0 -18 -26 -29 -58z"/>
<path d="M15071 11862 c-40 -20 -57 -43 -48 -66 15 -39 177 0 177 43 0 41 -70
54 -129 23z"/>
<path d="M15508 11860 c-23 -14 -12 -45 20 -60 43 -19 124 -24 146 -8 16 13
17 17 5 36 -7 11 -24 25 -36 31 -29 14 -112 14 -135 1z"/>
<path d="M10115 11764 c-44 -13 -103 -26 -132 -29 -54 -5 -113 -23 -80 -24 9
-1 17 -5 17 -10 0 -5 10 -11 23 -14 12 -2 3 -4 -20 -3 -26 0 -49 -6 -61 -17
-10 -9 -23 -17 -29 -17 -5 0 -18 -9 -29 -21 -15 -17 -16 -22 -4 -29 13 -8 11
-13 -8 -32 -19 -20 -24 -21 -32 -8 -8 13 -14 10 -39 -15 l-29 -30 27 -29 c14
-16 21 -27 14 -25 -6 2 -84 75 -173 162 -89 87 -163 157 -165 155 -1 -1 -6
-114 -10 -249 l-7 -247 67 -37 c70 -39 143 -65 260 -92 115 -27 552 -19 581
10 3 2 -12 116 -31 253 -40 287 -41 292 -43 339 -1 19 -5 35 -9 34 -5 -1 -44
-12 -88 -25z m-359 -270 l2 -22 -24 21 c-29 25 -29 25 -1 23 15 0 22 -8 23
-22z m5 -61 c13 -16 12 -17 -3 -4 -17 13 -22 21 -14 21 2 0 10 -8 17 -17z m43
-39 c5 -14 4 -15 -9 -4 -17 14 -19 20 -6 20 5 0 12 -7 15 -16z"/>
<path d="M9868 11738 c5 -5 16 -8 23 -6 8 3 3 7 -10 11 -17 4 -21 3 -13 -5z"/>
<path d="M9853 11693 c9 -2 25 -2 35 0 9 3 1 5 -18 5 -19 0 -27 -2 -17 -5z"/>
<path d="M9810 11680 c0 -5 5 -10 10 -10 6 0 10 5 10 10 0 6 -4 10 -10 10 -5
0 -10 -4 -10 -10z"/>
<path d="M15522 11600 c-14 -24 -16 -80 -2 -80 6 0 10 -5 10 -11 0 -13 25 -39
38 -39 36 0 56 95 28 133 -18 23 -58 22 -74 -3z"/>
<path d="M15141 11574 c-24 -30 -26 -48 -10 -92 19 -56 70 -53 89 4 18 54 -8
114 -50 114 -5 0 -18 -12 -29 -26z"/>
<path d="M9630 11583 c0 -13 29 -38 35 -31 3 3 -4 13 -15 23 -11 10 -20 13
-20 8z"/>
<path d="M14470 11192 c0 -24 42 -81 77 -103 26 -18 28 -18 35 -1 4 9 7 34 7
55 1 33 -2 37 -23 37 -13 0 -40 7 -60 15 -34 14 -36 14 -36 -3z"/>
<path d="M9993 11029 c-17 -5 -145 -43 -285 -84 -139 -42 -263 -78 -274 -80
-12 -3 -53 -15 -90 -27 -38 -12 -71 -22 -74 -23 -3 -1 -20 -5 -37 -9 -18 -4
-33 -12 -33 -16 0 -5 -7 -6 -17 -3 -11 4 -14 3 -9 -5 5 -8 2 -10 -8 -6 -9 3
-16 1 -16 -5 0 -6 -7 -8 -15 -5 -8 4 -15 1 -15 -5 0 -6 -7 -11 -16 -11 -9 0
-12 -5 -8 -12 5 -8 2 -9 -10 -5 -19 8 -59 -9 -52 -22 3 -4 0 -8 -7 -8 -22 -1
-133 -82 -176 -128 -23 -25 -55 -66 -71 -91 l-29 -47 32 -45 c45 -64 277 -302
369 -379 218 -182 499 -337 783 -431 394 -131 889 -151 1294 -52 401 98 754
284 1054 555 l61 56 -58 117 c-32 64 -88 162 -124 217 -83 126 -242 287 -327
331 -33 17 -170 64 -305 104 -135 40 -262 79 -282 86 -21 7 -38 9 -38 5 0 -5
59 -185 130 -401 72 -217 128 -395 127 -397 -2 -2 -24 4 -48 13 -77 28 -210
44 -359 44 -228 0 -420 -26 -710 -94 -80 -19 -146 -33 -148 -31 -5 4 -162 877
-162 899 0 7 -6 7 -47 -5z m-1035 -394 c-6 -13 -15 -22 -19 -19 -5 2 -1 14 9
24 22 26 24 25 10 -5z"/>
<path d="M15221 10904 c0 -11 3 -14 6 -6 3 7 2 16 -1 19 -3 4 -6 -2 -5 -13z"/>
<path d="M14986 10554 c-14 -30 -34 -68 -46 -84 -11 -15 -20 -30 -20 -32 0 -2
27 -17 60 -33 33 -16 60 -33 60 -39 0 -6 -7 -49 -15 -96 -8 -47 -15 -90 -15
-96 0 -7 56 -83 124 -170 181 -232 176 -227 209 -219 16 4 26 13 24 19 -2 6
-28 122 -58 257 l-54 246 -53 39 c-29 21 -58 44 -64 51 -6 8 -10 44 -9 83 l2
69 -60 30 -60 31 -25 -56z"/>
<path d="M11910 9143 c-113 -57 -209 -108 -214 -113 -5 -5 17 -57 52 -122 32
-62 124 -234 202 -383 78 -148 157 -297 175 -330 18 -33 58 -109 90 -170 32
-60 95 -180 140 -265 45 -85 108 -204 140 -265 32 -60 95 -180 140 -265 204
-384 300 -565 445 -840 88 -166 134 -253 220 -415 21 -38 86 -162 145 -275
163 -312 171 -316 389 -199 143 76 166 99 166 163 0 42 -19 81 -248 511 -90
171 -185 348 -210 395 -24 47 -61 117 -82 155 -21 39 -60 113 -88 165 -27 52
-152 289 -277 525 -213 402 -250 474 -360 680 -23 44 -63 118 -88 165 -24 47
-149 283 -277 525 -128 242 -237 445 -244 451 -8 8 -66 -17 -216 -93z"/>
<path d="M5401 9184 c0 -11 3 -14 6 -6 3 7 2 16 -1 19 -3 4 -6 -2 -5 -13z"/>
<path d="M5411 9134 c0 -11 3 -14 6 -6 3 7 2 16 -1 19 -3 4 -6 -2 -5 -13z"/>
<path d="M5425 9065 c4 -40 12 -123 20 -205 12 -129 1 -338 -26 -495 -14 -78
-40 -187 -49 -200 -4 -5 -10 -23 -14 -40 -9 -37 -47 -133 -80 -201 -28 -57
-126 -222 -149 -250 -9 -11 -46 -57 -83 -104 -74 -92 -247 -269 -333 -340 -30
-25 -74 -63 -99 -85 -25 -22 -54 -47 -66 -55 -12 -8 -27 -20 -34 -27 -8 -7
-30 -26 -50 -41 -21 -15 -39 -29 -42 -32 -3 -3 -21 -17 -40 -31 -19 -15 -45
-35 -57 -45 -47 -41 -63 -54 -68 -54 -3 0 -19 -13 -37 -30 -17 -16 -34 -30
-39 -30 -4 0 -20 -12 -36 -27 -16 -16 -47 -41 -68 -58 -21 -16 -48 -39 -59
-50 -12 -11 -55 -49 -96 -85 -74 -63 -211 -199 -280 -276 -53 -59 -180 -230
-180 -242 0 -6 -3 -12 -7 -14 -14 -6 -112 -194 -162 -313 -32 -74 -87 -285
-97 -368 l-7 -58 51 51 c29 29 49 57 45 63 -3 6 -1 7 5 3 7 -4 30 10 54 32 83
77 101 92 107 92 3 1 26 18 50 40 37 32 42 41 32 53 -9 12 -9 17 0 23 7 4 9 3
6 -3 -4 -6 0 -16 7 -22 11 -10 18 -7 30 11 9 12 16 19 16 16 0 -4 33 16 73 45
40 29 123 83 184 122 62 38 109 73 106 79 -3 5 -1 6 6 2 7 -4 49 15 99 46 48
30 95 57 105 61 11 4 15 12 11 18 -4 8 -3 9 5 5 14 -9 184 88 173 99 -4 5 -1
5 5 1 17 -9 55 12 47 26 -4 6 -3 8 3 5 20 -13 385 226 457 298 22 22 36 33 32
25 -4 -8 6 0 23 18 17 18 31 30 31 27 0 -3 17 10 38 30 20 20 37 42 37 48 0 7
7 12 15 12 8 1 14 7 12 14 -1 7 2 10 7 7 14 -9 74 51 65 65 -4 7 -3 9 4 5 6
-4 28 18 51 51 22 32 49 69 60 83 11 14 21 31 21 38 0 6 4 12 8 12 10 0 37 50
34 63 -1 4 2 7 8 7 5 0 16 14 25 30 9 17 12 30 9 30 -4 0 0 8 9 18 9 10 23 35
32 56 13 31 14 41 3 54 -11 15 -11 15 3 4 14 -11 20 0 52 95 46 139 70 232 63
249 -3 8 -2 14 3 14 12 0 31 140 43 325 13 183 1 454 -27 665 -8 58 -16 124
-19 147 -7 61 -54 319 -71 383 -12 46 -13 49 -10 15z m-270 -2284 c-9 -8 -36
-10 -30 -2 2 4 11 8 20 8 8 0 13 -3 10 -6z m-51 -92 c-3 -5 -14 -3 -24 3 -13
9 -16 14 -7 20 13 8 39 -10 31 -23z m-131 -64 c-3 -9 -8 -14 -10 -11 -3 3 -2
9 2 15 9 16 15 13 8 -4z m-62 -92 c13 -16 12 -17 -3 -4 -10 7 -18 15 -18 17 0
8 8 3 21 -13z m-1116 -715 c5 4 5 1 1 -6 -6 -10 -11 -10 -22 -1 -8 6 -14 14
-14 16 0 3 6 0 13 -6 8 -6 18 -7 22 -3z m-475 -358 c0 -5 -5 -10 -11 -10 -5 0
-7 5 -4 10 3 6 8 10 11 10 2 0 4 -4 4 -10z"/>
<path d="M8026 7704 c-3 -9 -3 -21 1 -27 3 -7 2 -9 -2 -4 -5 4 -25 -23 -45
-60 -40 -75 -142 -233 -183 -285 -14 -18 -47 -62 -73 -98 -79 -107 -142 -178
-274 -310 -146 -146 -227 -220 -240 -220 -6 0 -10 -4 -10 -9 0 -10 -245 -197
-290 -222 -14 -8 -41 -26 -60 -40 -40 -29 -224 -144 -290 -181 -249 -139 -319
-177 -615 -329 -66 -34 -136 -72 -155 -84 -19 -12 -71 -41 -115 -64 -44 -23
-102 -56 -130 -72 -27 -16 -61 -35 -75 -42 -14 -6 -27 -14 -30 -18 -3 -3 -21
-14 -40 -25 -19 -10 -37 -22 -40 -25 -3 -3 -39 -29 -82 -57 -236 -158 -438
-354 -567 -547 -36 -55 -70 -103 -75 -106 -4 -4 -2 -9 5 -12 9 -4 8 -6 -5 -6
-12 -1 -16 -6 -12 -16 3 -8 2 -15 -3 -15 -4 0 -13 -12 -20 -27 -10 -26 -10
-27 4 -9 8 11 15 17 15 13 0 -5 6 -2 14 5 8 7 12 16 10 19 -2 3 2 6 9 6 21 1
97 49 90 57 -4 4 -1 4 8 1 8 -3 31 1 50 9 28 13 27 21 -2 18 -3 -1 -6 5 -6 12
0 10 5 10 26 0 23 -11 38 -10 101 6 82 22 302 59 500 84 110 15 265 36 355 50
17 3 53 7 80 11 136 17 371 69 545 121 186 56 485 187 473 207 -3 6 -2 7 4 4
14 -9 127 52 145 78 4 5 11 10 15 10 4 0 29 15 55 33 51 35 73 60 44 49 -11
-4 -15 -3 -11 4 4 6 14 8 22 5 45 -18 409 368 386 408 -3 6 -3 8 2 4 11 -10
58 50 49 63 -4 7 -3 9 4 6 11 -8 62 72 62 97 0 9 5 16 11 16 6 0 8 9 4 23 -5
16 -4 18 3 8 8 -11 17 0 41 48 18 34 29 67 25 73 -5 7 -2 8 6 3 10 -6 12 -3 8
13 -4 14 -2 20 5 15 7 -4 8 0 3 13 -4 10 -4 15 0 11 9 -9 76 141 69 154 -4 5
-2 9 3 9 9 0 72 183 76 222 1 13 5 28 8 34 13 20 69 279 64 297 -2 9 -1 17 4
17 12 0 70 470 70 568 0 25 -15 30 -24 6z m-398 -1569 c-3 -3 -9 2 -12 12 -6
14 -5 15 5 6 7 -7 10 -15 7 -18z m-145 -150 c-3 -9 -8 -14 -10 -11 -3 3 -2 9
2 15 9 16 15 13 8 -4z m27 -15 c0 -5 -5 -10 -11 -10 -5 0 -7 5 -4 10 3 6 8 10
11 10 2 0 4 -4 4 -10z m-190 -224 c0 -2 -8 -10 -17 -17 -16 -13 -17 -12 -4 4
13 16 21 21 21 13z"/>
<path d="M9464 7376 c-155 -57 -258 -187 -273 -345 -13 -139 18 -234 108 -333
183 -200 510 -171 657 57 49 77 67 152 62 255 -3 73 -9 98 -35 151 -36 72
-105 146 -172 186 -98 57 -239 69 -347 29z m82 -277 l59 -60 57 61 c48 51 63
61 85 58 22 -2 29 -9 31 -32 3 -24 -6 -39 -54 -87 l-58 -59 57 -58 c61 -61 71
-94 37 -112 -26 -14 -42 -5 -104 59 l-50 51 -62 -60 c-63 -61 -81 -69 -102
-48 -23 23 -11 53 45 110 l57 58 -57 58 c-72 73 -78 118 -15 121 9 1 42 -26
74 -60z"/>
<path d="M14220 7385 c-228 -73 -352 -309 -279 -528 53 -160 167 -259 332
-287 289 -51 546 226 473 510 -33 127 -108 220 -224 277 -67 33 -83 37 -166
40 -59 2 -107 -2 -136 -12z m62 -282 l58 -57 58 57 c57 56 87 68 110 45 22
-22 12 -43 -48 -103 l-59 -59 59 -62 c33 -34 60 -69 60 -77 0 -18 -27 -47 -43
-47 -7 0 -41 27 -75 61 l-64 61 -63 -61 c-35 -34 -66 -61 -70 -61 -3 0 -15 5
-26 10 -34 19 -22 52 41 115 l60 59 -60 59 c-60 60 -70 83 -48 105 23 23 53
11 110 -45z"/>
<path d="M11784 3569 c-14 -23 -44 -176 -50 -256 l-7 -83 299 0 299 0 30 65
c16 36 33 65 36 65 4 0 10 8 14 18 15 46 154 164 210 178 77 19 1 24 -394 24
-308 0 -432 -3 -437 -11z"/>
<path d="M13116 3555 c-84 -29 -134 -64 -192 -129 -44 -50 -120 -183 -111
-192 4 -5 140 -8 183 -5 6 1 21 24 33 52 55 132 189 264 295 289 22 6 6 8 -54
9 -66 0 -100 -5 -154 -24z"/>
<path d="M13799 3557 c-92 -32 -157 -79 -222 -162 -30 -38 -73 -113 -82 -142
l-6 -23 233 0 233 0 27 43 c31 49 129 152 176 185 46 33 192 102 216 103 12 0
30 4 41 9 12 5 -97 9 -265 9 -271 0 -288 -1 -351 -22z"/>
<path d="M14920 2980 c0 -11 210 -673 215 -678 2 -3 55 38 116 89 l112 93 174
-89 c95 -50 177 -91 182 -93 5 -2 -15 73 -45 165 -30 92 -79 248 -111 346
l-57 177 -293 0 c-180 0 -293 -4 -293 -10z"/>
<path d="M12810 2101 c0 -5 7 -25 15 -45 l15 -36 95 0 c59 0 95 4 95 10 0 6
-7 26 -14 45 l-15 35 -95 0 c-53 0 -96 -4 -96 -9z"/>
<path d="M13490 2101 c0 -5 7 -25 15 -44 l15 -36 131 -3 131 -3 -1 -119 c-2
-89 1 -121 11 -127 7 -5 -2585 -9 -5759 -9 -5766 0 -5773 0 -5773 -20 0 -20 7
-20 8350 -20 8343 0 8350 0 8350 20 0 20 -7 20 -2287 20 l-2288 0 -70 27
c-134 50 -249 141 -326 259 l-43 64 -228 0 c-125 0 -228 -4 -228 -9z"/>
<path d="M1060 1740 c0 -20 7 -20 405 -20 398 0 405 0 405 20 0 20 -7 20 -405
20 -398 0 -405 0 -405 -20z"/>
</g>
</svg>
